<svg width="99" height="32" viewBox="0 0 99 32" fill="none" xmlns="http://www.w3.org/2000/svg">
<path d="M9.128 18.24C7.816 18.24 6.608 18.024 5.504 17.592C4.4 17.16 3.44 16.56 2.624 15.792C1.808 15.008 1.176 14.096 0.728 13.056C0.28 12 0.0560001 10.848 0.0560001 9.6C0.0560001 8.352 0.28 7.208 0.728 6.168C1.176 5.112 1.808 4.2 2.624 3.432C3.44 2.648 4.4 2.04 5.504 1.608C6.608 1.176 7.808 0.959999 9.104 0.959999C10.416 0.959999 11.616 1.176 12.704 1.608C13.808 2.04 14.768 2.648 15.584 3.432C16.4 4.2 17.032 5.112 17.48 6.168C17.928 7.208 18.152 8.352 18.152 9.6C18.152 10.848 17.928 12 17.48 13.056C17.032 14.112 16.4 15.024 15.584 15.792C14.768 16.56 13.808 17.16 12.704 17.592C11.616 18.024 10.424 18.24 9.128 18.24ZM9.104 15.504C9.952 15.504 10.736 15.36 11.456 15.072C12.176 14.784 12.8 14.376 13.328 13.848C13.856 13.304 14.264 12.68 14.552 11.976C14.856 11.256 15.008 10.464 15.008 9.6C15.008 8.736 14.856 7.952 14.552 7.248C14.264 6.528 13.856 5.904 13.328 5.376C12.8 4.832 12.176 4.416 11.456 4.128C10.736 3.84 9.952 3.696 9.104 3.696C8.256 3.696 7.472 3.84 6.752 4.128C6.048 4.416 5.424 4.832 4.88 5.376C4.352 5.904 3.936 6.528 3.632 7.248C3.344 7.952 3.2 8.736 3.2 9.6C3.2 10.448 3.344 11.232 3.632 11.952C3.936 12.672 4.352 13.304 4.88 13.848C5.408 14.376 6.032 14.784 6.752 15.072C7.472 15.36 8.256 15.504 9.104 15.504ZM21.4591 18V1.2H28.3711C29.8591 1.2 31.1311 1.44 32.1871 1.92C33.2591 2.4 34.0831 3.088 34.6591 3.984C35.2351 4.88 35.5231 5.944 35.5231 7.176C35.5231 8.408 35.2351 9.472 34.6591 10.368C34.0831 11.264 33.2591 11.952 32.1871 12.432C31.1311 12.912 29.8591 13.152 28.3711 13.152H23.1871L24.5791 11.688V18H21.4591ZM24.5791 12.024L23.1871 10.512H28.2271C29.6031 10.512 30.6351 10.224 31.3231 9.648C32.0271 9.056 32.3791 8.232 32.3791 7.176C32.3791 6.104 32.0271 5.28 31.3231 4.704C30.6351 4.128 29.6031 3.84 28.2271 3.84H23.1871L24.5791 2.304V12.024ZM41.5188 8.184H49.8708V10.752H41.5188V8.184ZM41.7588 15.384H51.2388V18H38.6388V1.2H50.9028V3.816H41.7588V15.384ZM54.7169 18V1.2H57.2849L67.8209 14.136H66.5489V1.2H69.6449V18H67.0769L56.5409 5.064H57.8129V18H54.7169ZM27.7873 31V14.2H30.3553L37.6993 26.464H36.3553L43.5793 14.2H46.1473L46.1713 31H43.2193L43.1953 18.832H43.8193L37.6753 29.08H36.2833L30.0433 18.832H30.7633V31H27.7873ZM52.8691 21.184H61.2211V23.752H52.8691V21.184ZM53.1091 28.384H62.5891V31H49.9891V14.2H62.2531V16.816H53.1091V28.384ZM65.3472 31V14.2H67.9152L78.4512 27.136H77.1792V14.2H80.2752V31H77.7072L67.1712 18.064H68.4432V31H65.3472ZM91.2809 31.24C88.9769 31.24 87.1689 30.592 85.8569 29.296C84.5609 28 83.9129 26.128 83.9129 23.68V14.2H87.0329V23.56C87.0329 25.288 87.4009 26.544 88.1369 27.328C88.8889 28.112 89.9449 28.504 91.3049 28.504C92.6649 28.504 93.7129 28.112 94.4489 27.328C95.1849 26.544 95.5529 25.288 95.5529 23.56V14.2H98.6249V23.68C98.6249 26.128 97.9689 28 96.6569 29.296C95.3609 30.592 93.5689 31.24 91.2809 31.24Z" fill="url(#paint0_linear_406_621)"/>
<defs>
<linearGradient id="paint0_linear_406_621" x1="15.2337" y1="1.54206" x2="73.8433" y2="69.709" gradientUnits="userSpaceOnUse">
<stop stop-color="#D9B6C8"/>
<stop offset="0.277681" stop-color="#C8C5F3"/>
<stop offset="1" stop-color="#64BF95"/>
</linearGradient>
</defs>
</svg>
